<mxfile host="app.diagrams.net" modified="2020-03-20T11:32:00.395Z" agent="Mozilla/5.0 (X11; Linux x86_64) AppleWebKit/537.36 (KHTML, like Gecko) Chrome/80.0.3987.132 Safari/537.36" etag="shkXZ0_CAxNepwv53IbR" version="12.8.5" type="github" pages="2">
  <diagram id="C5RBs43oDa-KdzZeNtuy" name="no address param">
    <mxGraphModel dx="3342" dy="1766" grid="1" gridSize="10" guides="1" tooltips="1" connect="1" arrows="1" fold="1" page="1" pageScale="1" pageWidth="827" pageHeight="1169" math="0" shadow="0">
      <root>
        <mxCell id="WIyWlLk6GJQsqaUBKTNV-0" />
        <mxCell id="WIyWlLk6GJQsqaUBKTNV-1" parent="WIyWlLk6GJQsqaUBKTNV-0" />
        <mxCell id="cwQ0EGb6aeRTo2j0DwRO-3" value="" style="group" vertex="1" connectable="0" parent="WIyWlLk6GJQsqaUBKTNV-1">
          <mxGeometry x="295.5" y="470" width="444.5" height="435" as="geometry" />
        </mxCell>
        <mxCell id="cwQ0EGb6aeRTo2j0DwRO-0" value="" style="whiteSpace=wrap;html=1;aspect=fixed;fillColor=#fff2cc;strokeColor=#d6b656;" vertex="1" parent="cwQ0EGb6aeRTo2j0DwRO-3">
          <mxGeometry y="86" width="349" height="349" as="geometry" />
        </mxCell>
        <mxCell id="cwQ0EGb6aeRTo2j0DwRO-1" value="AddAddressThunk" style="whiteSpace=wrap;html=1;rounded=1;arcSize=50;align=center;verticalAlign=middle;container=1;recursiveResize=0;strokeWidth=1;autosize=1;spacing=4;treeFolding=1;treeMoving=1;fillColor=#fff2cc;strokeColor=#d6b656;" vertex="1" parent="cwQ0EGb6aeRTo2j0DwRO-3">
          <mxGeometry x="304.5" width="140" height="30" as="geometry" />
        </mxCell>
        <mxCell id="cwQ0EGb6aeRTo2j0DwRO-2" value="" style="edgeStyle=entityRelationEdgeStyle;startArrow=none;endArrow=none;segment=10;curved=1;entryX=0;entryY=0.75;entryDx=0;entryDy=0;" edge="1" target="cwQ0EGb6aeRTo2j0DwRO-1" parent="cwQ0EGb6aeRTo2j0DwRO-3">
          <mxGeometry relative="1" as="geometry">
            <mxPoint x="349" y="86" as="sourcePoint" />
          </mxGeometry>
        </mxCell>
        <mxCell id="WIyWlLk6GJQsqaUBKTNV-2" value="" style="rounded=0;html=1;jettySize=auto;orthogonalLoop=1;fontSize=11;endArrow=block;endFill=0;endSize=8;strokeWidth=1;shadow=0;labelBackgroundColor=none;edgeStyle=orthogonalEdgeStyle;" parent="WIyWlLk6GJQsqaUBKTNV-1" source="WIyWlLk6GJQsqaUBKTNV-3" target="WIyWlLk6GJQsqaUBKTNV-6" edge="1">
          <mxGeometry relative="1" as="geometry" />
        </mxCell>
        <mxCell id="WIyWlLk6GJQsqaUBKTNV-3" value="start without address parameter" style="rounded=1;whiteSpace=wrap;html=1;fontSize=12;glass=0;strokeWidth=1;shadow=0;" parent="WIyWlLk6GJQsqaUBKTNV-1" vertex="1">
          <mxGeometry x="160" y="106" width="120" height="40" as="geometry" />
        </mxCell>
        <mxCell id="WIyWlLk6GJQsqaUBKTNV-4" value="Yes" style="rounded=0;html=1;jettySize=auto;orthogonalLoop=1;fontSize=11;endArrow=block;endFill=0;endSize=8;strokeWidth=1;shadow=0;labelBackgroundColor=none;edgeStyle=orthogonalEdgeStyle;" parent="WIyWlLk6GJQsqaUBKTNV-1" source="WIyWlLk6GJQsqaUBKTNV-6" target="WIyWlLk6GJQsqaUBKTNV-10" edge="1">
          <mxGeometry y="20" relative="1" as="geometry">
            <mxPoint as="offset" />
          </mxGeometry>
        </mxCell>
        <mxCell id="WIyWlLk6GJQsqaUBKTNV-5" value="No" style="edgeStyle=orthogonalEdgeStyle;rounded=0;html=1;jettySize=auto;orthogonalLoop=1;fontSize=11;endArrow=block;endFill=0;endSize=8;strokeWidth=1;shadow=0;labelBackgroundColor=none;entryX=1;entryY=0.5;entryDx=0;entryDy=0;exitX=1;exitY=0.5;exitDx=0;exitDy=0;" parent="WIyWlLk6GJQsqaUBKTNV-1" source="WIyWlLk6GJQsqaUBKTNV-6" target="85BLJ1AS2LhaxblETV25-0" edge="1">
          <mxGeometry y="10" relative="1" as="geometry">
            <mxPoint as="offset" />
            <Array as="points">
              <mxPoint x="320" y="376" />
              <mxPoint x="320" y="246" />
            </Array>
          </mxGeometry>
        </mxCell>
        <mxCell id="WIyWlLk6GJQsqaUBKTNV-6" value="Got wallet?" style="rhombus;whiteSpace=wrap;html=1;shadow=0;fontFamily=Helvetica;fontSize=12;align=center;strokeWidth=1;spacing=6;spacingTop=-4;" parent="WIyWlLk6GJQsqaUBKTNV-1" vertex="1">
          <mxGeometry x="170" y="336" width="100" height="80" as="geometry" />
        </mxCell>
        <mxCell id="WIyWlLk6GJQsqaUBKTNV-7" value="Look for reverse ENS" style="rounded=1;whiteSpace=wrap;html=1;fontSize=12;glass=0;strokeWidth=1;shadow=0;" parent="WIyWlLk6GJQsqaUBKTNV-1" vertex="1">
          <mxGeometry x="410" y="591" width="120" height="40" as="geometry" />
        </mxCell>
        <mxCell id="WIyWlLk6GJQsqaUBKTNV-8" value="No" style="rounded=0;html=1;jettySize=auto;orthogonalLoop=1;fontSize=11;endArrow=block;endFill=0;endSize=8;strokeWidth=1;shadow=0;labelBackgroundColor=none;edgeStyle=orthogonalEdgeStyle;" parent="WIyWlLk6GJQsqaUBKTNV-1" source="WIyWlLk6GJQsqaUBKTNV-10" target="WIyWlLk6GJQsqaUBKTNV-11" edge="1">
          <mxGeometry x="0.3333" y="20" relative="1" as="geometry">
            <mxPoint as="offset" />
          </mxGeometry>
        </mxCell>
        <mxCell id="WIyWlLk6GJQsqaUBKTNV-9" value="Yes" style="edgeStyle=orthogonalEdgeStyle;rounded=0;html=1;jettySize=auto;orthogonalLoop=1;fontSize=11;endArrow=block;endFill=0;endSize=8;strokeWidth=1;shadow=0;labelBackgroundColor=none;entryX=0.5;entryY=0;entryDx=0;entryDy=0;" parent="WIyWlLk6GJQsqaUBKTNV-1" source="WIyWlLk6GJQsqaUBKTNV-10" target="WIyWlLk6GJQsqaUBKTNV-7" edge="1">
          <mxGeometry y="10" relative="1" as="geometry">
            <mxPoint as="offset" />
            <mxPoint x="380" y="588" as="targetPoint" />
          </mxGeometry>
        </mxCell>
        <mxCell id="WIyWlLk6GJQsqaUBKTNV-10" value="Got wallet address?" style="rhombus;whiteSpace=wrap;html=1;shadow=0;fontFamily=Helvetica;fontSize=12;align=center;strokeWidth=1;spacing=6;spacingTop=-4;" parent="WIyWlLk6GJQsqaUBKTNV-1" vertex="1">
          <mxGeometry x="170" y="476" width="100" height="80" as="geometry" />
        </mxCell>
        <mxCell id="WIyWlLk6GJQsqaUBKTNV-11" value="Stay on /address#/,&lt;br&gt;Show message about selecting/changing address" style="rounded=1;whiteSpace=wrap;html=1;fontSize=12;glass=0;strokeWidth=1;shadow=0;" parent="WIyWlLk6GJQsqaUBKTNV-1" vertex="1">
          <mxGeometry x="160" y="816" width="120" height="80" as="geometry" />
        </mxCell>
        <mxCell id="WIyWlLk6GJQsqaUBKTNV-12" value="Redirect to #/address/ensname.eth" style="rounded=1;whiteSpace=wrap;html=1;fontSize=12;glass=0;strokeWidth=1;shadow=0;" parent="WIyWlLk6GJQsqaUBKTNV-1" vertex="1">
          <mxGeometry x="305" y="836" width="150" height="40" as="geometry" />
        </mxCell>
        <mxCell id="85BLJ1AS2LhaxblETV25-0" value="Wait for wallet selection" style="rounded=1;whiteSpace=wrap;html=1;fontSize=12;glass=0;strokeWidth=1;shadow=0;" vertex="1" parent="WIyWlLk6GJQsqaUBKTNV-1">
          <mxGeometry x="160" y="226" width="120" height="40" as="geometry" />
        </mxCell>
        <mxCell id="85BLJ1AS2LhaxblETV25-1" value="Got reverse ENS?" style="rhombus;whiteSpace=wrap;html=1;shadow=0;fontFamily=Helvetica;fontSize=12;align=center;strokeWidth=1;spacing=6;spacingTop=-4;" vertex="1" parent="WIyWlLk6GJQsqaUBKTNV-1">
          <mxGeometry x="420" y="666" width="100" height="80" as="geometry" />
        </mxCell>
        <mxCell id="85BLJ1AS2LhaxblETV25-2" value="" style="endArrow=classic;html=1;exitX=0.5;exitY=1;exitDx=0;exitDy=0;entryX=0.5;entryY=0;entryDx=0;entryDy=0;" edge="1" parent="WIyWlLk6GJQsqaUBKTNV-1" source="WIyWlLk6GJQsqaUBKTNV-7" target="85BLJ1AS2LhaxblETV25-1">
          <mxGeometry width="50" height="50" relative="1" as="geometry">
            <mxPoint x="400" y="946" as="sourcePoint" />
            <mxPoint x="450" y="896" as="targetPoint" />
          </mxGeometry>
        </mxCell>
        <mxCell id="85BLJ1AS2LhaxblETV25-3" value="Yes" style="rounded=0;html=1;jettySize=auto;orthogonalLoop=1;fontSize=11;endArrow=block;endFill=0;endSize=8;strokeWidth=1;shadow=0;labelBackgroundColor=none;edgeStyle=orthogonalEdgeStyle;exitX=0;exitY=0.5;exitDx=0;exitDy=0;entryX=0.5;entryY=0;entryDx=0;entryDy=0;" edge="1" parent="WIyWlLk6GJQsqaUBKTNV-1" source="85BLJ1AS2LhaxblETV25-1" target="WIyWlLk6GJQsqaUBKTNV-12">
          <mxGeometry y="20" relative="1" as="geometry">
            <mxPoint as="offset" />
            <mxPoint x="230" y="426" as="sourcePoint" />
            <mxPoint x="230" y="486" as="targetPoint" />
          </mxGeometry>
        </mxCell>
        <mxCell id="85BLJ1AS2LhaxblETV25-4" value="Redirect to #/address/0x123456" style="rounded=1;whiteSpace=wrap;html=1;fontSize=12;glass=0;strokeWidth=1;shadow=0;" vertex="1" parent="WIyWlLk6GJQsqaUBKTNV-1">
          <mxGeometry x="490" y="836" width="150" height="40" as="geometry" />
        </mxCell>
        <mxCell id="85BLJ1AS2LhaxblETV25-6" value="No" style="edgeStyle=orthogonalEdgeStyle;rounded=0;html=1;jettySize=auto;orthogonalLoop=1;fontSize=11;endArrow=block;endFill=0;endSize=8;strokeWidth=1;shadow=0;labelBackgroundColor=none;exitX=1;exitY=0.5;exitDx=0;exitDy=0;entryX=0.5;entryY=0;entryDx=0;entryDy=0;" edge="1" parent="WIyWlLk6GJQsqaUBKTNV-1" source="85BLJ1AS2LhaxblETV25-1" target="85BLJ1AS2LhaxblETV25-4">
          <mxGeometry y="10" relative="1" as="geometry">
            <mxPoint as="offset" />
            <mxPoint x="280" y="526" as="sourcePoint" />
            <mxPoint x="390" y="598" as="targetPoint" />
          </mxGeometry>
        </mxCell>
      </root>
    </mxGraphModel>
  </diagram>
  <diagram name="with address param" id="OrNfgZPGBWPHs8PxhcUz">
    <mxGraphModel dx="3342" dy="1766" grid="1" gridSize="10" guides="1" tooltips="1" connect="1" arrows="1" fold="1" page="1" pageScale="1" pageWidth="827" pageHeight="1169" math="0" shadow="0">
      <root>
        <mxCell id="1MibA_j5Y3jjrhWQwB_Z-0" />
        <mxCell id="1MibA_j5Y3jjrhWQwB_Z-1" parent="1MibA_j5Y3jjrhWQwB_Z-0" />
        <mxCell id="1MibA_j5Y3jjrhWQwB_Z-2" value="" style="rounded=0;html=1;jettySize=auto;orthogonalLoop=1;fontSize=11;endArrow=block;endFill=0;endSize=8;strokeWidth=1;shadow=0;labelBackgroundColor=none;edgeStyle=orthogonalEdgeStyle;" edge="1" parent="1MibA_j5Y3jjrhWQwB_Z-1" source="1MibA_j5Y3jjrhWQwB_Z-3" target="1MibA_j5Y3jjrhWQwB_Z-6">
          <mxGeometry relative="1" as="geometry" />
        </mxCell>
        <mxCell id="1MibA_j5Y3jjrhWQwB_Z-3" value="start with address parameter" style="rounded=1;whiteSpace=wrap;html=1;fontSize=12;glass=0;strokeWidth=1;shadow=0;" vertex="1" parent="1MibA_j5Y3jjrhWQwB_Z-1">
          <mxGeometry x="360" y="40" width="120" height="40" as="geometry" />
        </mxCell>
        <mxCell id="1MibA_j5Y3jjrhWQwB_Z-4" value="Yes" style="rounded=0;html=1;jettySize=auto;orthogonalLoop=1;fontSize=11;endArrow=block;endFill=0;endSize=8;strokeWidth=1;shadow=0;labelBackgroundColor=none;edgeStyle=orthogonalEdgeStyle;" edge="1" parent="1MibA_j5Y3jjrhWQwB_Z-1" source="1MibA_j5Y3jjrhWQwB_Z-6" target="1MibA_j5Y3jjrhWQwB_Z-10">
          <mxGeometry y="20" relative="1" as="geometry">
            <mxPoint as="offset" />
          </mxGeometry>
        </mxCell>
        <mxCell id="taPc3ssdE8-vp5gV5fpj-4" value="No" style="edgeStyle=orthogonalEdgeStyle;rounded=0;orthogonalLoop=1;jettySize=auto;html=1;entryX=1;entryY=0.5;entryDx=0;entryDy=0;exitX=1;exitY=0.5;exitDx=0;exitDy=0;" edge="1" parent="1MibA_j5Y3jjrhWQwB_Z-1" source="1MibA_j5Y3jjrhWQwB_Z-6" target="1MibA_j5Y3jjrhWQwB_Z-13">
          <mxGeometry relative="1" as="geometry" />
        </mxCell>
        <mxCell id="1MibA_j5Y3jjrhWQwB_Z-6" value="Got wallet?" style="rhombus;whiteSpace=wrap;html=1;shadow=0;fontFamily=Helvetica;fontSize=12;align=center;strokeWidth=1;spacing=6;spacingTop=-4;" vertex="1" parent="1MibA_j5Y3jjrhWQwB_Z-1">
          <mxGeometry x="370" y="204" width="100" height="80" as="geometry" />
        </mxCell>
        <mxCell id="1MibA_j5Y3jjrhWQwB_Z-7" value="Look for reverse ENS" style="rounded=1;whiteSpace=wrap;html=1;fontSize=12;glass=0;strokeWidth=1;shadow=0;" vertex="1" parent="1MibA_j5Y3jjrhWQwB_Z-1">
          <mxGeometry x="460" y="540" width="120" height="40" as="geometry" />
        </mxCell>
        <mxCell id="1MibA_j5Y3jjrhWQwB_Z-8" value="Yes" style="rounded=0;html=1;jettySize=auto;orthogonalLoop=1;fontSize=11;endArrow=block;endFill=0;endSize=8;strokeWidth=1;shadow=0;labelBackgroundColor=none;edgeStyle=orthogonalEdgeStyle;exitX=1;exitY=0.5;exitDx=0;exitDy=0;entryX=0.25;entryY=0;entryDx=0;entryDy=0;" edge="1" parent="1MibA_j5Y3jjrhWQwB_Z-1" source="p49DJpB88oMnsyjtTmOE-2" target="1MibA_j5Y3jjrhWQwB_Z-12">
          <mxGeometry x="0.3333" y="20" relative="1" as="geometry">
            <mxPoint as="offset" />
          </mxGeometry>
        </mxCell>
        <mxCell id="1MibA_j5Y3jjrhWQwB_Z-9" value="No" style="edgeStyle=orthogonalEdgeStyle;rounded=0;html=1;jettySize=auto;orthogonalLoop=1;fontSize=11;endArrow=block;endFill=0;endSize=8;strokeWidth=1;shadow=0;labelBackgroundColor=none;entryX=0.5;entryY=0;entryDx=0;entryDy=0;exitX=1;exitY=0.5;exitDx=0;exitDy=0;" edge="1" parent="1MibA_j5Y3jjrhWQwB_Z-1" source="1MibA_j5Y3jjrhWQwB_Z-10" target="p49DJpB88oMnsyjtTmOE-5">
          <mxGeometry y="10" relative="1" as="geometry">
            <mxPoint as="offset" />
            <mxPoint x="380" y="588" as="targetPoint" />
          </mxGeometry>
        </mxCell>
        <mxCell id="1MibA_j5Y3jjrhWQwB_Z-10" value="Address param is ENS name?" style="rhombus;whiteSpace=wrap;html=1;shadow=0;fontFamily=Helvetica;fontSize=12;align=center;strokeWidth=1;spacing=6;spacingTop=-4;" vertex="1" parent="1MibA_j5Y3jjrhWQwB_Z-1">
          <mxGeometry x="355" y="334" width="130" height="126" as="geometry" />
        </mxCell>
        <mxCell id="1MibA_j5Y3jjrhWQwB_Z-11" value="Show error &quot;Invalid ENS Name&quot;" style="rounded=1;whiteSpace=wrap;html=1;fontSize=12;glass=0;strokeWidth=1;shadow=0;fillColor=#f8cecc;strokeColor=#b85450;" vertex="1" parent="1MibA_j5Y3jjrhWQwB_Z-1">
          <mxGeometry x="60" y="860" width="120" height="40" as="geometry" />
        </mxCell>
        <mxCell id="1MibA_j5Y3jjrhWQwB_Z-12" value="Redirect to #/address/ensname.eth" style="rounded=1;whiteSpace=wrap;html=1;fontSize=12;glass=0;strokeWidth=1;shadow=0;fillColor=#d5e8d4;strokeColor=#82b366;" vertex="1" parent="1MibA_j5Y3jjrhWQwB_Z-1">
          <mxGeometry x="240" y="950" width="150" height="40" as="geometry" />
        </mxCell>
        <mxCell id="1MibA_j5Y3jjrhWQwB_Z-13" value="Wait for wallet selection" style="rounded=1;whiteSpace=wrap;html=1;fontSize=12;glass=0;strokeWidth=1;shadow=0;" vertex="1" parent="1MibA_j5Y3jjrhWQwB_Z-1">
          <mxGeometry x="360" y="120" width="120" height="40" as="geometry" />
        </mxCell>
        <mxCell id="1MibA_j5Y3jjrhWQwB_Z-14" value="Got reverse ENS?" style="rhombus;whiteSpace=wrap;html=1;shadow=0;fontFamily=Helvetica;fontSize=12;align=center;strokeWidth=1;spacing=6;spacingTop=-4;" vertex="1" parent="1MibA_j5Y3jjrhWQwB_Z-1">
          <mxGeometry x="470" y="620" width="100" height="80" as="geometry" />
        </mxCell>
        <mxCell id="1MibA_j5Y3jjrhWQwB_Z-15" value="" style="endArrow=classic;html=1;exitX=0.5;exitY=1;exitDx=0;exitDy=0;entryX=0.5;entryY=0;entryDx=0;entryDy=0;" edge="1" parent="1MibA_j5Y3jjrhWQwB_Z-1" source="1MibA_j5Y3jjrhWQwB_Z-7" target="1MibA_j5Y3jjrhWQwB_Z-14">
          <mxGeometry width="50" height="50" relative="1" as="geometry">
            <mxPoint x="575" y="905" as="sourcePoint" />
            <mxPoint x="625" y="855" as="targetPoint" />
          </mxGeometry>
        </mxCell>
        <mxCell id="1MibA_j5Y3jjrhWQwB_Z-16" value="Yes" style="rounded=0;html=1;jettySize=auto;orthogonalLoop=1;fontSize=11;endArrow=block;endFill=0;endSize=8;strokeWidth=1;shadow=0;labelBackgroundColor=none;edgeStyle=orthogonalEdgeStyle;exitX=0;exitY=0.5;exitDx=0;exitDy=0;entryX=0.75;entryY=0;entryDx=0;entryDy=0;" edge="1" parent="1MibA_j5Y3jjrhWQwB_Z-1" source="1MibA_j5Y3jjrhWQwB_Z-14" target="1MibA_j5Y3jjrhWQwB_Z-12">
          <mxGeometry y="20" relative="1" as="geometry">
            <mxPoint as="offset" />
            <mxPoint x="405" y="385" as="sourcePoint" />
            <mxPoint x="405" y="445" as="targetPoint" />
          </mxGeometry>
        </mxCell>
        <mxCell id="1MibA_j5Y3jjrhWQwB_Z-17" value="Redirect to #/address/0x123456" style="rounded=1;whiteSpace=wrap;html=1;fontSize=12;glass=0;strokeWidth=1;shadow=0;fillColor=#d5e8d4;strokeColor=#82b366;" vertex="1" parent="1MibA_j5Y3jjrhWQwB_Z-1">
          <mxGeometry x="445" y="950" width="150" height="40" as="geometry" />
        </mxCell>
        <mxCell id="1MibA_j5Y3jjrhWQwB_Z-18" value="No" style="edgeStyle=orthogonalEdgeStyle;rounded=0;html=1;jettySize=auto;orthogonalLoop=1;fontSize=11;endArrow=block;endFill=0;endSize=8;strokeWidth=1;shadow=0;labelBackgroundColor=none;exitX=0.5;exitY=1;exitDx=0;exitDy=0;entryX=0.5;entryY=0;entryDx=0;entryDy=0;" edge="1" parent="1MibA_j5Y3jjrhWQwB_Z-1" source="1MibA_j5Y3jjrhWQwB_Z-14" target="1MibA_j5Y3jjrhWQwB_Z-17">
          <mxGeometry y="10" relative="1" as="geometry">
            <mxPoint as="offset" />
            <mxPoint x="455" y="485" as="sourcePoint" />
            <mxPoint x="565" y="557" as="targetPoint" />
          </mxGeometry>
        </mxCell>
        <mxCell id="p49DJpB88oMnsyjtTmOE-3" style="edgeStyle=orthogonalEdgeStyle;rounded=0;orthogonalLoop=1;jettySize=auto;html=1;entryX=0.5;entryY=0;entryDx=0;entryDy=0;" edge="1" parent="1MibA_j5Y3jjrhWQwB_Z-1" source="p49DJpB88oMnsyjtTmOE-0" target="p49DJpB88oMnsyjtTmOE-2">
          <mxGeometry relative="1" as="geometry" />
        </mxCell>
        <mxCell id="p49DJpB88oMnsyjtTmOE-0" value="Resolve ENS Name" style="rounded=1;whiteSpace=wrap;html=1;fontSize=12;glass=0;strokeWidth=1;shadow=0;" vertex="1" parent="1MibA_j5Y3jjrhWQwB_Z-1">
          <mxGeometry x="60" y="440" width="120" height="40" as="geometry" />
        </mxCell>
        <mxCell id="p49DJpB88oMnsyjtTmOE-1" value="Yes" style="rounded=0;html=1;jettySize=auto;orthogonalLoop=1;fontSize=11;endArrow=block;endFill=0;endSize=8;strokeWidth=1;shadow=0;labelBackgroundColor=none;edgeStyle=orthogonalEdgeStyle;entryX=0.5;entryY=0;entryDx=0;entryDy=0;" edge="1" parent="1MibA_j5Y3jjrhWQwB_Z-1" source="1MibA_j5Y3jjrhWQwB_Z-10" target="p49DJpB88oMnsyjtTmOE-0">
          <mxGeometry x="0.3333" y="20" relative="1" as="geometry">
            <mxPoint as="offset" />
            <mxPoint x="350" y="374" as="sourcePoint" />
            <mxPoint x="210" y="675" as="targetPoint" />
          </mxGeometry>
        </mxCell>
        <mxCell id="p49DJpB88oMnsyjtTmOE-4" value="No" style="edgeStyle=orthogonalEdgeStyle;rounded=0;orthogonalLoop=1;jettySize=auto;html=1;entryX=0.5;entryY=0;entryDx=0;entryDy=0;exitX=0.5;exitY=1;exitDx=0;exitDy=0;" edge="1" parent="1MibA_j5Y3jjrhWQwB_Z-1" source="p49DJpB88oMnsyjtTmOE-2" target="1MibA_j5Y3jjrhWQwB_Z-11">
          <mxGeometry relative="1" as="geometry" />
        </mxCell>
        <mxCell id="p49DJpB88oMnsyjtTmOE-2" value="Got address?" style="rhombus;whiteSpace=wrap;html=1;shadow=0;fontFamily=Helvetica;fontSize=12;align=center;strokeWidth=1;spacing=6;spacingTop=-4;" vertex="1" parent="1MibA_j5Y3jjrhWQwB_Z-1">
          <mxGeometry x="70" y="545" width="100" height="80" as="geometry" />
        </mxCell>
        <mxCell id="p49DJpB88oMnsyjtTmOE-6" value="Yes" style="edgeStyle=orthogonalEdgeStyle;rounded=0;orthogonalLoop=1;jettySize=auto;html=1;entryX=0.5;entryY=0;entryDx=0;entryDy=0;exitX=0;exitY=0.5;exitDx=0;exitDy=0;" edge="1" parent="1MibA_j5Y3jjrhWQwB_Z-1" source="p49DJpB88oMnsyjtTmOE-5" target="1MibA_j5Y3jjrhWQwB_Z-7">
          <mxGeometry relative="1" as="geometry" />
        </mxCell>
        <mxCell id="p49DJpB88oMnsyjtTmOE-8" value="No" style="edgeStyle=orthogonalEdgeStyle;rounded=0;orthogonalLoop=1;jettySize=auto;html=1;entryX=0.5;entryY=0;entryDx=0;entryDy=0;exitX=1;exitY=0.5;exitDx=0;exitDy=0;" edge="1" parent="1MibA_j5Y3jjrhWQwB_Z-1" source="p49DJpB88oMnsyjtTmOE-5" target="p49DJpB88oMnsyjtTmOE-7">
          <mxGeometry relative="1" as="geometry" />
        </mxCell>
        <mxCell id="p49DJpB88oMnsyjtTmOE-5" value="Is valid address?" style="rhombus;whiteSpace=wrap;html=1;shadow=0;fontFamily=Helvetica;fontSize=12;align=center;strokeWidth=1;spacing=6;spacingTop=-4;" vertex="1" parent="1MibA_j5Y3jjrhWQwB_Z-1">
          <mxGeometry x="580" y="420" width="100" height="80" as="geometry" />
        </mxCell>
        <mxCell id="p49DJpB88oMnsyjtTmOE-7" value="Show error &quot;Invalid address&quot;" style="rounded=1;whiteSpace=wrap;html=1;fontSize=12;glass=0;strokeWidth=1;shadow=0;fillColor=#f8cecc;strokeColor=#b85450;" vertex="1" parent="1MibA_j5Y3jjrhWQwB_Z-1">
          <mxGeometry x="640" y="860" width="120" height="40" as="geometry" />
        </mxCell>
      </root>
    </mxGraphModel>
  </diagram>
</mxfile>
